%FSLAX34Y34*%
%MOMM*%
%LNSOLDERMASK_BOTTOM*%
G71*
G01*
%ADD10C, 1.70*%
%ADD11C, 1.60*%
%ADD12C, 1.70*%
%LPD*%
X228600Y898525D02*
G54D10*
D03*
X228600Y796925D02*
G54D10*
D03*
X260350Y917575D02*
G54D10*
D03*
X260350Y815975D02*
G54D10*
D03*
X228600Y695325D02*
G54D10*
D03*
X228600Y593725D02*
G54D10*
D03*
X260350Y714375D02*
G54D10*
D03*
X260350Y612775D02*
G54D10*
D03*
X381000Y898525D02*
G54D10*
D03*
X381000Y796925D02*
G54D10*
D03*
X533400Y898525D02*
G54D10*
D03*
X533400Y796925D02*
G54D10*
D03*
X412750Y917575D02*
G54D10*
D03*
X412750Y815975D02*
G54D10*
D03*
X565150Y917575D02*
G54D10*
D03*
X565150Y815975D02*
G54D10*
D03*
X381000Y695325D02*
G54D10*
D03*
X381000Y593725D02*
G54D10*
D03*
X533400Y695325D02*
G54D10*
D03*
X533400Y593725D02*
G54D10*
D03*
X412750Y714375D02*
G54D10*
D03*
X412750Y612775D02*
G54D10*
D03*
X565150Y714375D02*
G54D10*
D03*
X565150Y612775D02*
G54D10*
D03*
X685800Y898525D02*
G54D10*
D03*
X685800Y796925D02*
G54D10*
D03*
X838200Y898525D02*
G54D10*
D03*
X838200Y796925D02*
G54D10*
D03*
X717550Y917575D02*
G54D10*
D03*
X717550Y815975D02*
G54D10*
D03*
X869950Y917575D02*
G54D10*
D03*
X869950Y815975D02*
G54D10*
D03*
X685800Y695325D02*
G54D10*
D03*
X685800Y593725D02*
G54D10*
D03*
X838200Y695325D02*
G54D10*
D03*
X838200Y593725D02*
G54D10*
D03*
X717550Y714375D02*
G54D10*
D03*
X717550Y612775D02*
G54D10*
D03*
X869950Y714375D02*
G54D10*
D03*
X869950Y612775D02*
G54D10*
D03*
X673100Y936625D02*
G54D10*
D03*
X692150Y936625D02*
G54D10*
D03*
X825500Y936625D02*
G54D10*
D03*
X844550Y936625D02*
G54D10*
D03*
G36*
X38808Y963942D02*
X38808Y947942D01*
X22808Y947942D01*
X22808Y963942D01*
X38808Y963942D01*
G37*
X30808Y930542D02*
G54D11*
D03*
X30808Y905142D02*
G54D11*
D03*
X30808Y879742D02*
G54D11*
D03*
X30808Y854342D02*
G54D11*
D03*
X30808Y828942D02*
G54D11*
D03*
X30808Y803542D02*
G54D11*
D03*
X30808Y778142D02*
G54D11*
D03*
X30808Y752742D02*
G54D11*
D03*
X30808Y727342D02*
G54D11*
D03*
X30808Y701942D02*
G54D11*
D03*
X30808Y676542D02*
G54D11*
D03*
X30808Y651142D02*
G54D11*
D03*
X30808Y625742D02*
G54D11*
D03*
X30808Y600342D02*
G54D11*
D03*
X30808Y574942D02*
G54D11*
D03*
X183208Y574942D02*
G54D11*
D03*
X183208Y600342D02*
G54D11*
D03*
X183208Y625742D02*
G54D11*
D03*
X183208Y651142D02*
G54D11*
D03*
X183208Y676542D02*
G54D11*
D03*
X183208Y701942D02*
G54D11*
D03*
X183208Y727342D02*
G54D11*
D03*
X183208Y752742D02*
G54D11*
D03*
X183208Y778142D02*
G54D11*
D03*
X183208Y803542D02*
G54D11*
D03*
X183208Y828942D02*
G54D11*
D03*
X183208Y854342D02*
G54D11*
D03*
X183208Y879742D02*
G54D11*
D03*
X183208Y905142D02*
G54D11*
D03*
X183208Y930542D02*
G54D11*
D03*
X183208Y955942D02*
G54D11*
D03*
X63500Y542925D02*
G54D12*
D03*
X88900Y542925D02*
G54D12*
D03*
X114300Y542925D02*
G54D12*
D03*
X139700Y542925D02*
G54D12*
D03*
X165100Y542925D02*
G54D12*
D03*
M02*
