%FSLAX34Y34*%
%MOMM*%
%LNCOPPER_TOP*%
G71*
G01*
%ADD10C, 0.01*%
%ADD11R, 1.00X1.02*%
%ADD12C, 0.50*%
%ADD13R, 1.05X0.90*%
%ADD14C, 1.50*%
%ADD15R, 1.30X1.40*%
%ADD16C, 1.40*%
%ADD17C, 1.50*%
%LPD*%
G36*
X249500Y902625D02*
X249500Y892625D01*
X232500Y892625D01*
X232500Y902625D01*
X249500Y902625D01*
G37*
G54D10*
X249500Y902625D02*
X249500Y892625D01*
X232500Y892625D01*
X232500Y902625D01*
X249500Y902625D01*
G36*
X249500Y857625D02*
X249500Y847625D01*
X232500Y847625D01*
X232500Y857625D01*
X249500Y857625D01*
G37*
G54D10*
X249500Y857625D02*
X249500Y847625D01*
X232500Y847625D01*
X232500Y857625D01*
X249500Y857625D01*
G36*
X343500Y902625D02*
X343500Y892625D01*
X326500Y892625D01*
X326500Y902625D01*
X343500Y902625D01*
G37*
G54D10*
X343500Y902625D02*
X343500Y892625D01*
X326500Y892625D01*
X326500Y902625D01*
X343500Y902625D01*
G36*
X343500Y857625D02*
X343500Y847625D01*
X326500Y847625D01*
X326500Y857625D01*
X343500Y857625D01*
G37*
G54D10*
X343500Y857625D02*
X343500Y847625D01*
X326500Y847625D01*
X326500Y857625D01*
X343500Y857625D01*
X215900Y866774D02*
G54D11*
D03*
X250800Y866774D02*
G54D11*
D03*
G54D12*
X250800Y866774D02*
X241300Y854075D01*
X304121Y917525D02*
G54D13*
D03*
X279421Y917525D02*
G54D13*
D03*
G36*
X249500Y801025D02*
X249500Y791025D01*
X232500Y791025D01*
X232500Y801025D01*
X249500Y801025D01*
G37*
G54D10*
X249500Y801025D02*
X249500Y791025D01*
X232500Y791025D01*
X232500Y801025D01*
X249500Y801025D01*
G36*
X249500Y756025D02*
X249500Y746025D01*
X232500Y746025D01*
X232500Y756025D01*
X249500Y756025D01*
G37*
G54D10*
X249500Y756025D02*
X249500Y746025D01*
X232500Y746025D01*
X232500Y756025D01*
X249500Y756025D01*
G36*
X343500Y801025D02*
X343500Y791025D01*
X326500Y791025D01*
X326500Y801025D01*
X343500Y801025D01*
G37*
G54D10*
X343500Y801025D02*
X343500Y791025D01*
X326500Y791025D01*
X326500Y801025D01*
X343500Y801025D01*
G36*
X343500Y756025D02*
X343500Y746025D01*
X326500Y746025D01*
X326500Y756025D01*
X343500Y756025D01*
G37*
G54D10*
X343500Y756025D02*
X343500Y746025D01*
X326500Y746025D01*
X326500Y756025D01*
X343500Y756025D01*
X215900Y765174D02*
G54D11*
D03*
X250800Y765174D02*
G54D11*
D03*
G54D12*
X250800Y765174D02*
X241300Y752475D01*
X304121Y815925D02*
G54D13*
D03*
X279421Y815925D02*
G54D13*
D03*
X228600Y898525D02*
G54D14*
D03*
X228600Y796925D02*
G54D14*
D03*
X260350Y917575D02*
G54D14*
D03*
X260350Y815975D02*
G54D14*
D03*
G54D12*
X304800Y936625D02*
X304800Y708025D01*
G36*
X249500Y699425D02*
X249500Y689425D01*
X232500Y689425D01*
X232500Y699425D01*
X249500Y699425D01*
G37*
G54D10*
X249500Y699425D02*
X249500Y689425D01*
X232500Y689425D01*
X232500Y699425D01*
X249500Y699425D01*
G36*
X249500Y654425D02*
X249500Y644425D01*
X232500Y644425D01*
X232500Y654425D01*
X249500Y654425D01*
G37*
G54D10*
X249500Y654425D02*
X249500Y644425D01*
X232500Y644425D01*
X232500Y654425D01*
X249500Y654425D01*
G36*
X343500Y699425D02*
X343500Y689425D01*
X326500Y689425D01*
X326500Y699425D01*
X343500Y699425D01*
G37*
G54D10*
X343500Y699425D02*
X343500Y689425D01*
X326500Y689425D01*
X326500Y699425D01*
X343500Y699425D01*
G36*
X343500Y654425D02*
X343500Y644425D01*
X326500Y644425D01*
X326500Y654425D01*
X343500Y654425D01*
G37*
G54D10*
X343500Y654425D02*
X343500Y644425D01*
X326500Y644425D01*
X326500Y654425D01*
X343500Y654425D01*
X215900Y663574D02*
G54D11*
D03*
X250800Y663574D02*
G54D11*
D03*
G54D12*
X250800Y663574D02*
X241300Y650875D01*
X304121Y714325D02*
G54D13*
D03*
X279421Y714325D02*
G54D13*
D03*
G36*
X249500Y597825D02*
X249500Y587825D01*
X232500Y587825D01*
X232500Y597825D01*
X249500Y597825D01*
G37*
G54D10*
X249500Y597825D02*
X249500Y587825D01*
X232500Y587825D01*
X232500Y597825D01*
X249500Y597825D01*
G36*
X249500Y552825D02*
X249500Y542825D01*
X232500Y542825D01*
X232500Y552825D01*
X249500Y552825D01*
G37*
G54D10*
X249500Y552825D02*
X249500Y542825D01*
X232500Y542825D01*
X232500Y552825D01*
X249500Y552825D01*
G36*
X343500Y597825D02*
X343500Y587825D01*
X326500Y587825D01*
X326500Y597825D01*
X343500Y597825D01*
G37*
G54D10*
X343500Y597825D02*
X343500Y587825D01*
X326500Y587825D01*
X326500Y597825D01*
X343500Y597825D01*
G36*
X343500Y552825D02*
X343500Y542825D01*
X326500Y542825D01*
X326500Y552825D01*
X343500Y552825D01*
G37*
G54D10*
X343500Y552825D02*
X343500Y542825D01*
X326500Y542825D01*
X326500Y552825D01*
X343500Y552825D01*
X215900Y561974D02*
G54D11*
D03*
X250800Y561974D02*
G54D11*
D03*
G54D12*
X250800Y561974D02*
X241300Y549275D01*
X304121Y612725D02*
G54D13*
D03*
X279421Y612725D02*
G54D13*
D03*
G54D12*
X215900Y765174D02*
X215900Y561974D01*
X228600Y695325D02*
G54D14*
D03*
X228600Y593725D02*
G54D14*
D03*
X260350Y714375D02*
G54D14*
D03*
X260350Y612775D02*
G54D14*
D03*
G54D12*
X304800Y720725D02*
X304121Y612725D01*
G36*
X401900Y902625D02*
X401900Y892625D01*
X384900Y892625D01*
X384900Y902625D01*
X401900Y902625D01*
G37*
G54D10*
X401900Y902625D02*
X401900Y892625D01*
X384900Y892625D01*
X384900Y902625D01*
X401900Y902625D01*
G36*
X401900Y857625D02*
X401900Y847625D01*
X384900Y847625D01*
X384900Y857625D01*
X401900Y857625D01*
G37*
G54D10*
X401900Y857625D02*
X401900Y847625D01*
X384900Y847625D01*
X384900Y857625D01*
X401900Y857625D01*
G36*
X495900Y902625D02*
X495900Y892625D01*
X478900Y892625D01*
X478900Y902625D01*
X495900Y902625D01*
G37*
G54D10*
X495900Y902625D02*
X495900Y892625D01*
X478900Y892625D01*
X478900Y902625D01*
X495900Y902625D01*
G36*
X495900Y857625D02*
X495900Y847625D01*
X478900Y847625D01*
X478900Y857625D01*
X495900Y857625D01*
G37*
G54D10*
X495900Y857625D02*
X495900Y847625D01*
X478900Y847625D01*
X478900Y857625D01*
X495900Y857625D01*
X368300Y866774D02*
G54D11*
D03*
X403200Y866774D02*
G54D11*
D03*
G54D12*
X403200Y866774D02*
X393700Y854075D01*
X456521Y917525D02*
G54D13*
D03*
X431821Y917525D02*
G54D13*
D03*
G36*
X401900Y801025D02*
X401900Y791025D01*
X384900Y791025D01*
X384900Y801025D01*
X401900Y801025D01*
G37*
G54D10*
X401900Y801025D02*
X401900Y791025D01*
X384900Y791025D01*
X384900Y801025D01*
X401900Y801025D01*
G36*
X401900Y756025D02*
X401900Y746025D01*
X384900Y746025D01*
X384900Y756025D01*
X401900Y756025D01*
G37*
G54D10*
X401900Y756025D02*
X401900Y746025D01*
X384900Y746025D01*
X384900Y756025D01*
X401900Y756025D01*
G36*
X495900Y801025D02*
X495900Y791025D01*
X478900Y791025D01*
X478900Y801025D01*
X495900Y801025D01*
G37*
G54D10*
X495900Y801025D02*
X495900Y791025D01*
X478900Y791025D01*
X478900Y801025D01*
X495900Y801025D01*
G36*
X495900Y756025D02*
X495900Y746025D01*
X478900Y746025D01*
X478900Y756025D01*
X495900Y756025D01*
G37*
G54D10*
X495900Y756025D02*
X495900Y746025D01*
X478900Y746025D01*
X478900Y756025D01*
X495900Y756025D01*
X368300Y765174D02*
G54D11*
D03*
X403200Y765174D02*
G54D11*
D03*
G54D12*
X403200Y765174D02*
X393700Y752475D01*
X456521Y815925D02*
G54D13*
D03*
X431821Y815925D02*
G54D13*
D03*
G36*
X554300Y902625D02*
X554300Y892625D01*
X537300Y892625D01*
X537300Y902625D01*
X554300Y902625D01*
G37*
G54D10*
X554300Y902625D02*
X554300Y892625D01*
X537300Y892625D01*
X537300Y902625D01*
X554300Y902625D01*
G36*
X554300Y857625D02*
X554300Y847625D01*
X537300Y847625D01*
X537300Y857625D01*
X554300Y857625D01*
G37*
G54D10*
X554300Y857625D02*
X554300Y847625D01*
X537300Y847625D01*
X537300Y857625D01*
X554300Y857625D01*
G36*
X648300Y902625D02*
X648300Y892625D01*
X631300Y892625D01*
X631300Y902625D01*
X648300Y902625D01*
G37*
G54D10*
X648300Y902625D02*
X648300Y892625D01*
X631300Y892625D01*
X631300Y902625D01*
X648300Y902625D01*
G36*
X648300Y857625D02*
X648300Y847625D01*
X631300Y847625D01*
X631300Y857625D01*
X648300Y857625D01*
G37*
G54D10*
X648300Y857625D02*
X648300Y847625D01*
X631300Y847625D01*
X631300Y857625D01*
X648300Y857625D01*
X520700Y866774D02*
G54D11*
D03*
X555600Y866774D02*
G54D11*
D03*
G54D12*
X555600Y866774D02*
X546100Y854075D01*
X608921Y917525D02*
G54D13*
D03*
X584221Y917525D02*
G54D13*
D03*
G36*
X554300Y801025D02*
X554300Y791025D01*
X537300Y791025D01*
X537300Y801025D01*
X554300Y801025D01*
G37*
G54D10*
X554300Y801025D02*
X554300Y791025D01*
X537300Y791025D01*
X537300Y801025D01*
X554300Y801025D01*
G36*
X554300Y756025D02*
X554300Y746025D01*
X537300Y746025D01*
X537300Y756025D01*
X554300Y756025D01*
G37*
G54D10*
X554300Y756025D02*
X554300Y746025D01*
X537300Y746025D01*
X537300Y756025D01*
X554300Y756025D01*
G36*
X648300Y801025D02*
X648300Y791025D01*
X631300Y791025D01*
X631300Y801025D01*
X648300Y801025D01*
G37*
G54D10*
X648300Y801025D02*
X648300Y791025D01*
X631300Y791025D01*
X631300Y801025D01*
X648300Y801025D01*
G36*
X648300Y756025D02*
X648300Y746025D01*
X631300Y746025D01*
X631300Y756025D01*
X648300Y756025D01*
G37*
G54D10*
X648300Y756025D02*
X648300Y746025D01*
X631300Y746025D01*
X631300Y756025D01*
X648300Y756025D01*
X520700Y765174D02*
G54D11*
D03*
X555600Y765174D02*
G54D11*
D03*
G54D12*
X555600Y765174D02*
X546100Y752475D01*
X608921Y815925D02*
G54D13*
D03*
X584221Y815925D02*
G54D13*
D03*
G54D12*
X368300Y923925D02*
X368300Y765174D01*
G54D12*
X520700Y936625D02*
X520700Y765174D01*
X381000Y898525D02*
G54D14*
D03*
X381000Y796925D02*
G54D14*
D03*
X533400Y898525D02*
G54D14*
D03*
X533400Y796925D02*
G54D14*
D03*
X412750Y917575D02*
G54D14*
D03*
X412750Y815975D02*
G54D14*
D03*
X565150Y917575D02*
G54D14*
D03*
X565150Y815975D02*
G54D14*
D03*
G54D12*
X457200Y936625D02*
X457200Y708025D01*
G54D12*
X609600Y936625D02*
X609600Y708025D01*
G36*
X401900Y699425D02*
X401900Y689425D01*
X384900Y689425D01*
X384900Y699425D01*
X401900Y699425D01*
G37*
G54D10*
X401900Y699425D02*
X401900Y689425D01*
X384900Y689425D01*
X384900Y699425D01*
X401900Y699425D01*
G36*
X401900Y654425D02*
X401900Y644425D01*
X384900Y644425D01*
X384900Y654425D01*
X401900Y654425D01*
G37*
G54D10*
X401900Y654425D02*
X401900Y644425D01*
X384900Y644425D01*
X384900Y654425D01*
X401900Y654425D01*
G36*
X495900Y699425D02*
X495900Y689425D01*
X478900Y689425D01*
X478900Y699425D01*
X495900Y699425D01*
G37*
G54D10*
X495900Y699425D02*
X495900Y689425D01*
X478900Y689425D01*
X478900Y699425D01*
X495900Y699425D01*
G36*
X495900Y654425D02*
X495900Y644425D01*
X478900Y644425D01*
X478900Y654425D01*
X495900Y654425D01*
G37*
G54D10*
X495900Y654425D02*
X495900Y644425D01*
X478900Y644425D01*
X478900Y654425D01*
X495900Y654425D01*
X368300Y663574D02*
G54D11*
D03*
X403200Y663574D02*
G54D11*
D03*
G54D12*
X403200Y663574D02*
X393700Y650875D01*
X456521Y714325D02*
G54D13*
D03*
X431821Y714325D02*
G54D13*
D03*
G36*
X401900Y597825D02*
X401900Y587825D01*
X384900Y587825D01*
X384900Y597825D01*
X401900Y597825D01*
G37*
G54D10*
X401900Y597825D02*
X401900Y587825D01*
X384900Y587825D01*
X384900Y597825D01*
X401900Y597825D01*
G36*
X401900Y552825D02*
X401900Y542825D01*
X384900Y542825D01*
X384900Y552825D01*
X401900Y552825D01*
G37*
G54D10*
X401900Y552825D02*
X401900Y542825D01*
X384900Y542825D01*
X384900Y552825D01*
X401900Y552825D01*
G36*
X495900Y597825D02*
X495900Y587825D01*
X478900Y587825D01*
X478900Y597825D01*
X495900Y597825D01*
G37*
G54D10*
X495900Y597825D02*
X495900Y587825D01*
X478900Y587825D01*
X478900Y597825D01*
X495900Y597825D01*
G36*
X495900Y552825D02*
X495900Y542825D01*
X478900Y542825D01*
X478900Y552825D01*
X495900Y552825D01*
G37*
G54D10*
X495900Y552825D02*
X495900Y542825D01*
X478900Y542825D01*
X478900Y552825D01*
X495900Y552825D01*
X368300Y561974D02*
G54D11*
D03*
X403200Y561974D02*
G54D11*
D03*
G54D12*
X403200Y561974D02*
X393700Y549275D01*
X456521Y612725D02*
G54D13*
D03*
X431821Y612725D02*
G54D13*
D03*
G36*
X554300Y699425D02*
X554300Y689425D01*
X537300Y689425D01*
X537300Y699425D01*
X554300Y699425D01*
G37*
G54D10*
X554300Y699425D02*
X554300Y689425D01*
X537300Y689425D01*
X537300Y699425D01*
X554300Y699425D01*
G36*
X554300Y654425D02*
X554300Y644425D01*
X537300Y644425D01*
X537300Y654425D01*
X554300Y654425D01*
G37*
G54D10*
X554300Y654425D02*
X554300Y644425D01*
X537300Y644425D01*
X537300Y654425D01*
X554300Y654425D01*
G36*
X648300Y699425D02*
X648300Y689425D01*
X631300Y689425D01*
X631300Y699425D01*
X648300Y699425D01*
G37*
G54D10*
X648300Y699425D02*
X648300Y689425D01*
X631300Y689425D01*
X631300Y699425D01*
X648300Y699425D01*
G36*
X648300Y654425D02*
X648300Y644425D01*
X631300Y644425D01*
X631300Y654425D01*
X648300Y654425D01*
G37*
G54D10*
X648300Y654425D02*
X648300Y644425D01*
X631300Y644425D01*
X631300Y654425D01*
X648300Y654425D01*
X520700Y663574D02*
G54D11*
D03*
X555600Y663574D02*
G54D11*
D03*
G54D12*
X555600Y663574D02*
X546100Y650875D01*
X608921Y714325D02*
G54D13*
D03*
X584221Y714325D02*
G54D13*
D03*
G36*
X554300Y597825D02*
X554300Y587825D01*
X537300Y587825D01*
X537300Y597825D01*
X554300Y597825D01*
G37*
G54D10*
X554300Y597825D02*
X554300Y587825D01*
X537300Y587825D01*
X537300Y597825D01*
X554300Y597825D01*
G36*
X554300Y552825D02*
X554300Y542825D01*
X537300Y542825D01*
X537300Y552825D01*
X554300Y552825D01*
G37*
G54D10*
X554300Y552825D02*
X554300Y542825D01*
X537300Y542825D01*
X537300Y552825D01*
X554300Y552825D01*
G36*
X648300Y597825D02*
X648300Y587825D01*
X631300Y587825D01*
X631300Y597825D01*
X648300Y597825D01*
G37*
G54D10*
X648300Y597825D02*
X648300Y587825D01*
X631300Y587825D01*
X631300Y597825D01*
X648300Y597825D01*
G36*
X648300Y552825D02*
X648300Y542825D01*
X631300Y542825D01*
X631300Y552825D01*
X648300Y552825D01*
G37*
G54D10*
X648300Y552825D02*
X648300Y542825D01*
X631300Y542825D01*
X631300Y552825D01*
X648300Y552825D01*
X520700Y561974D02*
G54D11*
D03*
X555600Y561974D02*
G54D11*
D03*
G54D12*
X555600Y561974D02*
X546100Y549275D01*
X608921Y612725D02*
G54D13*
D03*
X584221Y612725D02*
G54D13*
D03*
G54D12*
X368300Y765174D02*
X368300Y561974D01*
G54D12*
X520700Y765174D02*
X520700Y561974D01*
X381000Y695325D02*
G54D14*
D03*
X381000Y593725D02*
G54D14*
D03*
X533400Y695325D02*
G54D14*
D03*
X533400Y593725D02*
G54D14*
D03*
X412750Y714375D02*
G54D14*
D03*
X412750Y612775D02*
G54D14*
D03*
X565150Y714375D02*
G54D14*
D03*
X565150Y612775D02*
G54D14*
D03*
G54D12*
X457200Y720725D02*
X456521Y612725D01*
G54D12*
X609600Y720725D02*
X608921Y612725D01*
G54D12*
X260350Y917575D02*
X279371Y917575D01*
X279421Y917525D01*
G54D12*
X412750Y917575D02*
X431771Y917575D01*
X431821Y917525D01*
G54D12*
X565150Y917575D02*
X584171Y917575D01*
X584221Y917525D01*
G54D12*
X260350Y815975D02*
X279371Y815975D01*
X279421Y815925D01*
G54D12*
X412750Y815975D02*
X431771Y815975D01*
X431821Y815925D01*
G54D12*
X565150Y815975D02*
X584171Y815975D01*
X584221Y815925D01*
G54D12*
X260350Y714375D02*
X279371Y714375D01*
X279421Y714325D01*
G54D12*
X412750Y714375D02*
X431771Y714375D01*
X431821Y714325D01*
G54D12*
X565150Y714375D02*
X584171Y714375D01*
X584221Y714325D01*
G54D12*
X260350Y612775D02*
X279371Y612775D01*
X279421Y612725D01*
G54D12*
X412750Y612775D02*
X431771Y612775D01*
X431821Y612725D01*
G54D12*
X565150Y612775D02*
X584171Y612775D01*
X584221Y612725D01*
X285800Y936625D02*
G54D15*
D03*
X304800Y936625D02*
G54D15*
D03*
G36*
X431700Y943625D02*
X444700Y943625D01*
X444700Y929625D01*
X431700Y929625D01*
X431700Y943625D01*
G37*
X457200Y936625D02*
G54D15*
D03*
X590600Y936625D02*
G54D15*
D03*
X609600Y936625D02*
G54D15*
D03*
G54D12*
X520700Y936625D02*
X508000Y949325D01*
X368300Y949325D01*
X342900Y970772D01*
X240312Y970772D01*
G54D12*
X590600Y936625D02*
X533400Y936625D01*
X509064Y958529D01*
X372278Y958280D01*
X346240Y980406D01*
G36*
X706700Y902625D02*
X706700Y892625D01*
X689700Y892625D01*
X689700Y902625D01*
X706700Y902625D01*
G37*
G54D10*
X706700Y902625D02*
X706700Y892625D01*
X689700Y892625D01*
X689700Y902625D01*
X706700Y902625D01*
G36*
X706700Y857625D02*
X706700Y847625D01*
X689700Y847625D01*
X689700Y857625D01*
X706700Y857625D01*
G37*
G54D10*
X706700Y857625D02*
X706700Y847625D01*
X689700Y847625D01*
X689700Y857625D01*
X706700Y857625D01*
G36*
X800700Y902625D02*
X800700Y892625D01*
X783700Y892625D01*
X783700Y902625D01*
X800700Y902625D01*
G37*
G54D10*
X800700Y902625D02*
X800700Y892625D01*
X783700Y892625D01*
X783700Y902625D01*
X800700Y902625D01*
G36*
X800700Y857625D02*
X800700Y847625D01*
X783700Y847625D01*
X783700Y857625D01*
X800700Y857625D01*
G37*
G54D10*
X800700Y857625D02*
X800700Y847625D01*
X783700Y847625D01*
X783700Y857625D01*
X800700Y857625D01*
X673100Y866774D02*
G54D11*
D03*
X708000Y866774D02*
G54D11*
D03*
G54D12*
X708000Y866774D02*
X698500Y854075D01*
X761321Y917525D02*
G54D13*
D03*
X736621Y917525D02*
G54D13*
D03*
G36*
X706700Y801025D02*
X706700Y791025D01*
X689700Y791025D01*
X689700Y801025D01*
X706700Y801025D01*
G37*
G54D10*
X706700Y801025D02*
X706700Y791025D01*
X689700Y791025D01*
X689700Y801025D01*
X706700Y801025D01*
G36*
X706700Y756025D02*
X706700Y746025D01*
X689700Y746025D01*
X689700Y756025D01*
X706700Y756025D01*
G37*
G54D10*
X706700Y756025D02*
X706700Y746025D01*
X689700Y746025D01*
X689700Y756025D01*
X706700Y756025D01*
G36*
X800700Y801025D02*
X800700Y791025D01*
X783700Y791025D01*
X783700Y801025D01*
X800700Y801025D01*
G37*
G54D10*
X800700Y801025D02*
X800700Y791025D01*
X783700Y791025D01*
X783700Y801025D01*
X800700Y801025D01*
G36*
X800700Y756025D02*
X800700Y746025D01*
X783700Y746025D01*
X783700Y756025D01*
X800700Y756025D01*
G37*
G54D10*
X800700Y756025D02*
X800700Y746025D01*
X783700Y746025D01*
X783700Y756025D01*
X800700Y756025D01*
X673100Y765174D02*
G54D11*
D03*
X708000Y765174D02*
G54D11*
D03*
G54D12*
X708000Y765174D02*
X698500Y752475D01*
X761321Y815925D02*
G54D13*
D03*
X736621Y815925D02*
G54D13*
D03*
G36*
X859100Y902625D02*
X859100Y892625D01*
X842100Y892625D01*
X842100Y902625D01*
X859100Y902625D01*
G37*
G54D10*
X859100Y902625D02*
X859100Y892625D01*
X842100Y892625D01*
X842100Y902625D01*
X859100Y902625D01*
G36*
X859100Y857625D02*
X859100Y847625D01*
X842100Y847625D01*
X842100Y857625D01*
X859100Y857625D01*
G37*
G54D10*
X859100Y857625D02*
X859100Y847625D01*
X842100Y847625D01*
X842100Y857625D01*
X859100Y857625D01*
G36*
X953100Y902625D02*
X953100Y892625D01*
X936100Y892625D01*
X936100Y902625D01*
X953100Y902625D01*
G37*
G54D10*
X953100Y902625D02*
X953100Y892625D01*
X936100Y892625D01*
X936100Y902625D01*
X953100Y902625D01*
G36*
X953100Y857625D02*
X953100Y847625D01*
X936100Y847625D01*
X936100Y857625D01*
X953100Y857625D01*
G37*
G54D10*
X953100Y857625D02*
X953100Y847625D01*
X936100Y847625D01*
X936100Y857625D01*
X953100Y857625D01*
X825500Y866774D02*
G54D11*
D03*
X860400Y866774D02*
G54D11*
D03*
G54D12*
X860400Y866774D02*
X850900Y854075D01*
X913721Y917525D02*
G54D13*
D03*
X889021Y917525D02*
G54D13*
D03*
G36*
X859100Y801025D02*
X859100Y791025D01*
X842100Y791025D01*
X842100Y801025D01*
X859100Y801025D01*
G37*
G54D10*
X859100Y801025D02*
X859100Y791025D01*
X842100Y791025D01*
X842100Y801025D01*
X859100Y801025D01*
G36*
X859100Y756025D02*
X859100Y746025D01*
X842100Y746025D01*
X842100Y756025D01*
X859100Y756025D01*
G37*
G54D10*
X859100Y756025D02*
X859100Y746025D01*
X842100Y746025D01*
X842100Y756025D01*
X859100Y756025D01*
G36*
X953100Y801025D02*
X953100Y791025D01*
X936100Y791025D01*
X936100Y801025D01*
X953100Y801025D01*
G37*
G54D10*
X953100Y801025D02*
X953100Y791025D01*
X936100Y791025D01*
X936100Y801025D01*
X953100Y801025D01*
G36*
X953100Y756025D02*
X953100Y746025D01*
X936100Y746025D01*
X936100Y756025D01*
X953100Y756025D01*
G37*
G54D10*
X953100Y756025D02*
X953100Y746025D01*
X936100Y746025D01*
X936100Y756025D01*
X953100Y756025D01*
X825500Y765174D02*
G54D11*
D03*
X860400Y765174D02*
G54D11*
D03*
G54D12*
X860400Y765174D02*
X850900Y752475D01*
X913721Y815925D02*
G54D13*
D03*
X889021Y815925D02*
G54D13*
D03*
G54D12*
X673100Y936625D02*
X673100Y765174D01*
G54D12*
X825500Y936625D02*
X825500Y765174D01*
X685800Y898525D02*
G54D14*
D03*
X685800Y796925D02*
G54D14*
D03*
X838200Y898525D02*
G54D14*
D03*
X838200Y796925D02*
G54D14*
D03*
X717550Y917575D02*
G54D14*
D03*
X717550Y815975D02*
G54D14*
D03*
X869950Y917575D02*
G54D14*
D03*
X869950Y815975D02*
G54D14*
D03*
G54D12*
X762000Y936625D02*
X762000Y708025D01*
G54D12*
X914400Y936625D02*
X914400Y708025D01*
G36*
X706700Y699425D02*
X706700Y689425D01*
X689700Y689425D01*
X689700Y699425D01*
X706700Y699425D01*
G37*
G54D10*
X706700Y699425D02*
X706700Y689425D01*
X689700Y689425D01*
X689700Y699425D01*
X706700Y699425D01*
G36*
X706700Y654425D02*
X706700Y644425D01*
X689700Y644425D01*
X689700Y654425D01*
X706700Y654425D01*
G37*
G54D10*
X706700Y654425D02*
X706700Y644425D01*
X689700Y644425D01*
X689700Y654425D01*
X706700Y654425D01*
G36*
X800700Y699425D02*
X800700Y689425D01*
X783700Y689425D01*
X783700Y699425D01*
X800700Y699425D01*
G37*
G54D10*
X800700Y699425D02*
X800700Y689425D01*
X783700Y689425D01*
X783700Y699425D01*
X800700Y699425D01*
G36*
X800700Y654425D02*
X800700Y644425D01*
X783700Y644425D01*
X783700Y654425D01*
X800700Y654425D01*
G37*
G54D10*
X800700Y654425D02*
X800700Y644425D01*
X783700Y644425D01*
X783700Y654425D01*
X800700Y654425D01*
X673100Y663574D02*
G54D11*
D03*
X708000Y663574D02*
G54D11*
D03*
G54D12*
X708000Y663574D02*
X698500Y650875D01*
X761321Y714325D02*
G54D13*
D03*
X736621Y714325D02*
G54D13*
D03*
G36*
X706700Y597825D02*
X706700Y587825D01*
X689700Y587825D01*
X689700Y597825D01*
X706700Y597825D01*
G37*
G54D10*
X706700Y597825D02*
X706700Y587825D01*
X689700Y587825D01*
X689700Y597825D01*
X706700Y597825D01*
G36*
X706700Y552825D02*
X706700Y542825D01*
X689700Y542825D01*
X689700Y552825D01*
X706700Y552825D01*
G37*
G54D10*
X706700Y552825D02*
X706700Y542825D01*
X689700Y542825D01*
X689700Y552825D01*
X706700Y552825D01*
G36*
X800700Y597825D02*
X800700Y587825D01*
X783700Y587825D01*
X783700Y597825D01*
X800700Y597825D01*
G37*
G54D10*
X800700Y597825D02*
X800700Y587825D01*
X783700Y587825D01*
X783700Y597825D01*
X800700Y597825D01*
G36*
X800700Y552825D02*
X800700Y542825D01*
X783700Y542825D01*
X783700Y552825D01*
X800700Y552825D01*
G37*
G54D10*
X800700Y552825D02*
X800700Y542825D01*
X783700Y542825D01*
X783700Y552825D01*
X800700Y552825D01*
X673100Y561974D02*
G54D11*
D03*
X708000Y561974D02*
G54D11*
D03*
G54D12*
X708000Y561974D02*
X698500Y549275D01*
X761321Y612725D02*
G54D13*
D03*
X736621Y612725D02*
G54D13*
D03*
G36*
X859100Y699425D02*
X859100Y689425D01*
X842100Y689425D01*
X842100Y699425D01*
X859100Y699425D01*
G37*
G54D10*
X859100Y699425D02*
X859100Y689425D01*
X842100Y689425D01*
X842100Y699425D01*
X859100Y699425D01*
G36*
X859100Y654425D02*
X859100Y644425D01*
X842100Y644425D01*
X842100Y654425D01*
X859100Y654425D01*
G37*
G54D10*
X859100Y654425D02*
X859100Y644425D01*
X842100Y644425D01*
X842100Y654425D01*
X859100Y654425D01*
G36*
X953100Y699425D02*
X953100Y689425D01*
X936100Y689425D01*
X936100Y699425D01*
X953100Y699425D01*
G37*
G54D10*
X953100Y699425D02*
X953100Y689425D01*
X936100Y689425D01*
X936100Y699425D01*
X953100Y699425D01*
G36*
X953100Y654425D02*
X953100Y644425D01*
X936100Y644425D01*
X936100Y654425D01*
X953100Y654425D01*
G37*
G54D10*
X953100Y654425D02*
X953100Y644425D01*
X936100Y644425D01*
X936100Y654425D01*
X953100Y654425D01*
X825500Y663574D02*
G54D11*
D03*
X860400Y663574D02*
G54D11*
D03*
G54D12*
X860400Y663574D02*
X850900Y650875D01*
X913721Y714325D02*
G54D13*
D03*
X889021Y714325D02*
G54D13*
D03*
G36*
X859100Y597825D02*
X859100Y587825D01*
X842100Y587825D01*
X842100Y597825D01*
X859100Y597825D01*
G37*
G54D10*
X859100Y597825D02*
X859100Y587825D01*
X842100Y587825D01*
X842100Y597825D01*
X859100Y597825D01*
G36*
X859100Y552825D02*
X859100Y542825D01*
X842100Y542825D01*
X842100Y552825D01*
X859100Y552825D01*
G37*
G54D10*
X859100Y552825D02*
X859100Y542825D01*
X842100Y542825D01*
X842100Y552825D01*
X859100Y552825D01*
G36*
X953100Y597825D02*
X953100Y587825D01*
X936100Y587825D01*
X936100Y597825D01*
X953100Y597825D01*
G37*
G54D10*
X953100Y597825D02*
X953100Y587825D01*
X936100Y587825D01*
X936100Y597825D01*
X953100Y597825D01*
G36*
X953100Y552825D02*
X953100Y542825D01*
X936100Y542825D01*
X936100Y552825D01*
X953100Y552825D01*
G37*
G54D10*
X953100Y552825D02*
X953100Y542825D01*
X936100Y542825D01*
X936100Y552825D01*
X953100Y552825D01*
X825500Y561974D02*
G54D11*
D03*
X860400Y561974D02*
G54D11*
D03*
G54D12*
X860400Y561974D02*
X850900Y549275D01*
X913721Y612725D02*
G54D13*
D03*
X889021Y612725D02*
G54D13*
D03*
G54D12*
X673100Y765174D02*
X673100Y561974D01*
G54D12*
X825500Y765174D02*
X825500Y561974D01*
X685800Y695325D02*
G54D14*
D03*
X685800Y593725D02*
G54D14*
D03*
X838200Y695325D02*
G54D14*
D03*
X838200Y593725D02*
G54D14*
D03*
X717550Y714375D02*
G54D14*
D03*
X717550Y612775D02*
G54D14*
D03*
X869950Y714375D02*
G54D14*
D03*
X869950Y612775D02*
G54D14*
D03*
G54D12*
X762000Y720725D02*
X761321Y612725D01*
G54D12*
X914400Y720725D02*
X913721Y612725D01*
G54D12*
X717550Y917575D02*
X736571Y917575D01*
X736621Y917525D01*
G54D12*
X869950Y917575D02*
X888971Y917575D01*
X889021Y917525D01*
G54D12*
X717550Y815975D02*
X736571Y815975D01*
X736621Y815925D01*
G54D12*
X869950Y815975D02*
X888971Y815975D01*
X889021Y815925D01*
G54D12*
X717550Y714375D02*
X736571Y714375D01*
X736621Y714325D01*
G54D12*
X869950Y714375D02*
X888971Y714375D01*
X889021Y714325D01*
G54D12*
X717550Y612775D02*
X736571Y612775D01*
X736621Y612725D01*
G54D12*
X869950Y612775D02*
X888971Y612775D01*
X889021Y612725D01*
G36*
X736500Y943625D02*
X749500Y943625D01*
X749500Y929625D01*
X736500Y929625D01*
X736500Y943625D01*
G37*
X762000Y936625D02*
G54D15*
D03*
X895400Y936625D02*
G54D15*
D03*
X914400Y936625D02*
G54D15*
D03*
X673100Y936625D02*
G54D14*
D03*
X692150Y936625D02*
G54D14*
D03*
X825500Y936625D02*
G54D14*
D03*
X844550Y936625D02*
G54D14*
D03*
G54D12*
X895400Y936625D02*
X844550Y936625D01*
G54D12*
X743000Y936625D02*
X692150Y936625D01*
G36*
X37808Y962942D02*
X37808Y948942D01*
X23808Y948942D01*
X23808Y962942D01*
X37808Y962942D01*
G37*
X30808Y930542D02*
G54D16*
D03*
X30808Y905142D02*
G54D16*
D03*
X30808Y879742D02*
G54D16*
D03*
X30808Y854342D02*
G54D16*
D03*
X30808Y828942D02*
G54D16*
D03*
X30808Y803542D02*
G54D16*
D03*
X30808Y778142D02*
G54D16*
D03*
X30808Y752742D02*
G54D16*
D03*
X30808Y727342D02*
G54D16*
D03*
X30808Y701942D02*
G54D16*
D03*
X30808Y676542D02*
G54D16*
D03*
X30808Y651142D02*
G54D16*
D03*
X30808Y625742D02*
G54D16*
D03*
X30808Y600342D02*
G54D16*
D03*
X30808Y574942D02*
G54D16*
D03*
X183208Y574942D02*
G54D16*
D03*
X183208Y600342D02*
G54D16*
D03*
X183208Y625742D02*
G54D16*
D03*
X183208Y651142D02*
G54D16*
D03*
X183208Y676542D02*
G54D16*
D03*
X183208Y701942D02*
G54D16*
D03*
X183208Y727342D02*
G54D16*
D03*
X183208Y752742D02*
G54D16*
D03*
X183208Y778142D02*
G54D16*
D03*
X183208Y803542D02*
G54D16*
D03*
X183208Y828942D02*
G54D16*
D03*
X183208Y854342D02*
G54D16*
D03*
X183208Y879742D02*
G54D16*
D03*
X183208Y905142D02*
G54D16*
D03*
X183208Y930542D02*
G54D16*
D03*
X183208Y955942D02*
G54D16*
D03*
G54D12*
X215900Y765176D02*
X203200Y777875D01*
X183475Y777875D01*
X183208Y778142D01*
G54D12*
X215900Y765174D02*
X215900Y866774D01*
G54D12*
X285800Y936625D02*
X241300Y936625D01*
X205513Y898782D01*
X205514Y837338D01*
X196850Y828675D01*
X183475Y828675D01*
X183208Y828942D01*
G54D12*
X368300Y923925D02*
X337835Y953104D01*
X246622Y953105D01*
X196850Y904875D01*
X196850Y867984D01*
X183208Y854342D01*
G54D12*
X438200Y936625D02*
X368300Y936625D01*
X340924Y962025D01*
X241300Y962025D01*
X196850Y917575D01*
X171450Y917575D01*
X165100Y911225D01*
X165100Y897850D01*
X183208Y879742D01*
G54D12*
X240312Y970772D02*
X237347Y970772D01*
X196850Y930275D01*
X183475Y930275D01*
X183208Y930542D01*
G54D12*
X346240Y980406D02*
X234281Y980406D01*
X196850Y955675D01*
X183208Y955942D01*
X63500Y542925D02*
G54D17*
D03*
X88900Y542925D02*
G54D17*
D03*
X114300Y542925D02*
G54D17*
D03*
X139700Y542925D02*
G54D17*
D03*
G54D12*
X63500Y542925D02*
X63500Y549275D01*
X88900Y574675D01*
X182942Y574675D01*
X183208Y574942D01*
X165100Y542925D02*
G54D17*
D03*
G54D12*
X139700Y542925D02*
X165100Y542925D01*
M02*
