%FSLAX34Y34*%
%MOMM*%
%LNCOPPER_BOTTOM*%
G71*
G01*
%ADD10C, 1.50*%
%ADD11C, 0.50*%
%ADD12C, 1.40*%
%ADD13C, 1.50*%
%LPD*%
X228600Y898525D02*
G54D10*
D03*
X228600Y796925D02*
G54D10*
D03*
X260350Y917575D02*
G54D10*
D03*
X260350Y815975D02*
G54D10*
D03*
X228600Y695325D02*
G54D10*
D03*
X228600Y593725D02*
G54D10*
D03*
X260350Y714375D02*
G54D10*
D03*
X260350Y612775D02*
G54D10*
D03*
X381000Y898525D02*
G54D10*
D03*
X381000Y796925D02*
G54D10*
D03*
X533400Y898525D02*
G54D10*
D03*
X533400Y796925D02*
G54D10*
D03*
G54D11*
X330200Y898525D02*
X533400Y898525D01*
G54D11*
X330200Y796925D02*
X533400Y796925D01*
X412750Y917575D02*
G54D10*
D03*
X412750Y815975D02*
G54D10*
D03*
X565150Y917575D02*
G54D10*
D03*
X565150Y815975D02*
G54D10*
D03*
G54D11*
X330200Y917575D02*
X565150Y917575D01*
G54D11*
X260350Y815975D02*
X565150Y815975D01*
X381000Y695325D02*
G54D10*
D03*
X381000Y593725D02*
G54D10*
D03*
X533400Y695325D02*
G54D10*
D03*
X533400Y593725D02*
G54D10*
D03*
G54D11*
X228600Y695325D02*
X533400Y695325D01*
G54D11*
X228600Y593725D02*
X533400Y593725D01*
X412750Y714375D02*
G54D10*
D03*
X412750Y612775D02*
G54D10*
D03*
X565150Y714375D02*
G54D10*
D03*
X565150Y612775D02*
G54D10*
D03*
G54D11*
X260350Y714375D02*
X565150Y714375D01*
G54D11*
X330200Y612775D02*
X565150Y612775D01*
G54D11*
X381000Y898525D02*
X673100Y898525D01*
G54D11*
X381000Y796925D02*
X673100Y796925D01*
G54D11*
X412750Y917575D02*
X673100Y917575D01*
G54D11*
X412750Y815975D02*
X673100Y815975D01*
G54D11*
X381000Y695325D02*
X673100Y695325D01*
G54D11*
X381000Y593725D02*
X673100Y593725D01*
G54D11*
X412750Y714375D02*
X673100Y714375D01*
G54D11*
X412750Y612775D02*
X673100Y612775D01*
X685800Y898525D02*
G54D10*
D03*
X685800Y796925D02*
G54D10*
D03*
X838200Y898525D02*
G54D10*
D03*
X838200Y796925D02*
G54D10*
D03*
G54D11*
X635000Y898525D02*
X838200Y898525D01*
G54D11*
X635000Y796925D02*
X838200Y796925D01*
X717550Y917575D02*
G54D10*
D03*
X717550Y815975D02*
G54D10*
D03*
X869950Y917575D02*
G54D10*
D03*
X869950Y815975D02*
G54D10*
D03*
G54D11*
X635000Y917575D02*
X869950Y917575D01*
G54D11*
X635000Y815975D02*
X869950Y815975D01*
X685800Y695325D02*
G54D10*
D03*
X685800Y593725D02*
G54D10*
D03*
X838200Y695325D02*
G54D10*
D03*
X838200Y593725D02*
G54D10*
D03*
G54D11*
X635000Y695325D02*
X838200Y695325D01*
G54D11*
X635000Y593725D02*
X838200Y593725D01*
X717550Y714375D02*
G54D10*
D03*
X717550Y612775D02*
G54D10*
D03*
X869950Y714375D02*
G54D10*
D03*
X869950Y612775D02*
G54D10*
D03*
G54D11*
X635000Y714375D02*
X869950Y714375D01*
G54D11*
X635000Y612775D02*
X869950Y612775D01*
X673100Y936625D02*
G54D10*
D03*
X692150Y936625D02*
G54D10*
D03*
X825500Y936625D02*
G54D10*
D03*
X844550Y936625D02*
G54D10*
D03*
G54D11*
X673100Y936625D02*
X234950Y936625D01*
G54D11*
X692150Y936625D02*
X692150Y942975D01*
X685800Y949325D01*
X234950Y949325D01*
X196850Y917575D01*
G54D11*
X825500Y936625D02*
X800100Y962025D01*
X215900Y962025D01*
G54D11*
X844550Y936625D02*
X806450Y974725D01*
X50800Y974725D01*
G36*
X37808Y962942D02*
X37808Y948942D01*
X23808Y948942D01*
X23808Y962942D01*
X37808Y962942D01*
G37*
X30808Y930542D02*
G54D12*
D03*
X30808Y905142D02*
G54D12*
D03*
X30808Y879742D02*
G54D12*
D03*
X30808Y854342D02*
G54D12*
D03*
X30808Y828942D02*
G54D12*
D03*
X30808Y803542D02*
G54D12*
D03*
X30808Y778142D02*
G54D12*
D03*
X30808Y752742D02*
G54D12*
D03*
X30808Y727342D02*
G54D12*
D03*
X30808Y701942D02*
G54D12*
D03*
X30808Y676542D02*
G54D12*
D03*
X30808Y651142D02*
G54D12*
D03*
X30808Y625742D02*
G54D12*
D03*
X30808Y600342D02*
G54D12*
D03*
X30808Y574942D02*
G54D12*
D03*
X183208Y574942D02*
G54D12*
D03*
X183208Y600342D02*
G54D12*
D03*
X183208Y625742D02*
G54D12*
D03*
X183208Y651142D02*
G54D12*
D03*
X183208Y676542D02*
G54D12*
D03*
X183208Y701942D02*
G54D12*
D03*
X183208Y727342D02*
G54D12*
D03*
X183208Y752742D02*
G54D12*
D03*
X183208Y778142D02*
G54D12*
D03*
X183208Y803542D02*
G54D12*
D03*
X183208Y828942D02*
G54D12*
D03*
X183208Y854342D02*
G54D12*
D03*
X183208Y879742D02*
G54D12*
D03*
X183208Y905142D02*
G54D12*
D03*
X183208Y930542D02*
G54D12*
D03*
X183208Y955942D02*
G54D12*
D03*
G54D11*
X330200Y612775D02*
X260350Y612775D01*
X195642Y612775D01*
X183208Y625742D01*
G54D11*
X228600Y593725D02*
X189825Y593725D01*
X183208Y600342D01*
G54D11*
X183208Y651142D02*
X207168Y651142D01*
X227000Y670974D01*
X227000Y693724D01*
X228600Y695325D01*
G54D11*
X260350Y714375D02*
X222250Y714375D01*
X215900Y708025D01*
X215900Y688975D01*
X203200Y676275D01*
X183475Y676275D01*
X183208Y676542D01*
G54D11*
X330200Y796925D02*
X228600Y796925D01*
X228600Y733425D01*
X196850Y701675D01*
X183475Y701675D01*
X183208Y701942D01*
G54D11*
X260350Y815975D02*
X228600Y815975D01*
X215900Y803275D01*
X215900Y746125D01*
X196850Y727075D01*
X183475Y727075D01*
X183208Y727342D01*
G54D11*
X330200Y898525D02*
X228600Y898525D01*
X228600Y828675D01*
X203200Y803275D01*
X203200Y758825D01*
X196850Y752475D01*
X183475Y752475D01*
X183208Y752742D01*
G54D11*
X330200Y917575D02*
X260350Y917575D01*
X228600Y917575D01*
X215900Y904875D01*
X215900Y836234D01*
X183208Y803542D01*
G54D11*
X234950Y936625D02*
X203200Y904875D01*
X196850Y892175D01*
X43775Y892175D01*
X30808Y879742D01*
G54D11*
X196850Y917575D02*
X43242Y917575D01*
X30808Y905142D01*
G54D11*
X215900Y962025D02*
X196850Y942975D01*
X57150Y942975D01*
X44450Y930275D01*
X31075Y930275D01*
X30808Y930542D01*
G54D11*
X50800Y974725D02*
X49592Y974725D01*
X30808Y955942D01*
X63500Y542925D02*
G54D13*
D03*
G54D11*
X30808Y828942D02*
X44183Y828942D01*
X114300Y758825D01*
X114300Y542925D01*
X88900Y542925D02*
G54D13*
D03*
X114300Y542925D02*
G54D13*
D03*
X139700Y542925D02*
G54D13*
D03*
G54D11*
X30808Y803542D02*
X37833Y803542D01*
X88900Y752475D01*
X88900Y542925D01*
X165100Y542925D02*
G54D13*
D03*
M02*
