; Drill file
; Format: 2.4 (00.0000)
M48
INCH
T01C0.0236
T02C0.0283
T03C0.0295
%
G05
G90
T01
X009000Y023370
X010250Y024130
X009000Y027370
X010250Y028120
X009000Y031380
X010250Y032120
X009000Y035380
X010250Y036120
X015000Y035380
X016250Y036120
X016250Y032120
X015000Y031380
X016250Y028120
X015000Y027370
X016250Y024130
X015000Y023370
X021000Y023370
X022250Y024130
X021000Y027370
X022250Y028120
X021000Y031380
X022250Y032120
X021000Y035380
X022250Y036120
X026500Y036880
X027250Y036880
X028250Y036120
X027000Y035380
X028250Y032120
X027000Y031380
X028250Y028120
X027000Y027370
X028250Y024130
X027000Y023370
X033000Y023370
X034250Y024130
X033000Y027370
X034250Y028120
X033000Y031380
X034250Y032120
X033000Y035380
X034250Y036120
X033250Y036880
X032500Y036880
T02
X001210Y022640
X001210Y023640
X001210Y024640
X001210Y025640
X001210Y026640
X001210Y027640
X001210Y028640
X001210Y029640
X001210Y030640
X001210Y031640
X001210Y032640
X001210Y033640
X001210Y034640
X001210Y035640
X001210Y036640
X001210Y037640
X007210Y037640
X007210Y036640
X007210Y035640
X007210Y034640
X007210Y033640
X007210Y032640
X007210Y031640
X007210Y030640
X007210Y029640
X007210Y028640
X007210Y027640
X007210Y026640
X007210Y025640
X007210Y024640
X007210Y023640
X007210Y022640
T03
X002500Y021380
X003500Y021380
X004500Y021380
X005500Y021380
X006500Y021380
M30
